<svg width="25" height="33" viewBox="0 0 25 33" fill="none" xmlns="http://www.w3.org/2000/svg">
<path d="M8.657 24.05C8.587 24.05 8.524 24.022 8.468 23.966C8.426 23.924 8.405 23.861 8.405 23.777V22.139C8.405 22.069 8.426 22.013 8.468 21.971C8.524 21.915 8.587 21.887 8.657 21.887H11.513V15.419H9.035C8.965 15.419 8.902 15.398 8.846 15.356C8.804 15.3 8.783 15.23 8.783 15.146V13.508C8.783 13.438 8.804 13.382 8.846 13.34C8.902 13.284 8.965 13.256 9.035 13.256H13.529C13.599 13.256 13.655 13.284 13.697 13.34C13.753 13.382 13.781 13.438 13.781 13.508V21.887H16.364C16.434 21.887 16.49 21.915 16.532 21.971C16.588 22.013 16.616 22.069 16.616 22.139V23.777C16.616 23.959 16.532 24.05 16.364 24.05H8.657ZM12.353 11.597C11.905 11.597 11.527 11.443 11.219 11.135C10.911 10.827 10.757 10.456 10.757 10.022C10.757 9.56 10.911 9.175 11.219 8.867C11.527 8.545 11.905 8.384 12.353 8.384C12.815 8.384 13.2 8.545 13.508 8.867C13.83 9.175 13.991 9.56 13.991 10.022C13.991 10.456 13.83 10.827 13.508 11.135C13.2 11.443 12.815 11.597 12.353 11.597Z" fill="#FCFCFD"/>
<line x1="1.5" y1="8" x2="1.5" y2="33" stroke="#FCFCFD" stroke-width="3"/>
<line y1="31.5" x2="8" y2="31.5" stroke="#FCFCFD" stroke-width="3"/>
<line x1="23.5" y1="26" x2="23.5" y2="1" stroke="#FCFCFD" stroke-width="3"/>
<line x1="25" y1="1.5" x2="17" y2="1.5" stroke="#FCFCFD" stroke-width="3"/>
</svg>
